<mxfile host="65bd71144e">
    <diagram id="dD2rauepSO2QSnOtWpre" name="Page-1">
        <mxGraphModel dx="689" dy="497" grid="1" gridSize="10" guides="1" tooltips="1" connect="1" arrows="1" fold="1" page="1" pageScale="1" pageWidth="850" pageHeight="1100" math="0" shadow="0">
            <root>
                <mxCell id="0"/>
                <mxCell id="1" parent="0"/>
                <mxCell id="4" value="" style="edgeStyle=none;html=1;fontFamily=Verdana;fontColor=#f43481;" edge="1" parent="1" source="2">
                    <mxGeometry relative="1" as="geometry">
                        <mxPoint x="100" y="200" as="targetPoint"/>
                    </mxGeometry>
                </mxCell>
                <mxCell id="6" value="" style="edgeStyle=none;html=1;fontFamily=Verdana;fontColor=#f43481;" edge="1" parent="1" source="2" target="5">
                    <mxGeometry relative="1" as="geometry"/>
                </mxCell>
                <mxCell id="8" value="" style="edgeStyle=none;html=1;fontFamily=Verdana;fontColor=#f43481;" edge="1" parent="1" source="2" target="7">
                    <mxGeometry relative="1" as="geometry"/>
                </mxCell>
                <mxCell id="10" value="" style="edgeStyle=none;html=1;fontFamily=Verdana;fontColor=#f43481;" edge="1" parent="1" source="2" target="9">
                    <mxGeometry relative="1" as="geometry"/>
                </mxCell>
                <mxCell id="12" value="" style="edgeStyle=none;html=1;fontFamily=Verdana;fontColor=#f43481;" edge="1" parent="1" source="2" target="11">
                    <mxGeometry relative="1" as="geometry"/>
                </mxCell>
                <mxCell id="2" value="COMMUNITY" style="whiteSpace=wrap;html=1;fontStyle=1;strokeColor=#F054D6;fontFamily=Verdana;textDirection=ltr;fontColor=#F02E7B;" vertex="1" parent="1">
                    <mxGeometry x="240" y="160" width="200" height="80" as="geometry"/>
                </mxCell>
                <mxCell id="16" value="" style="edgeStyle=none;html=1;fontFamily=Verdana;fontColor=#f43481;" edge="1" parent="1" source="5" target="15">
                    <mxGeometry relative="1" as="geometry"/>
                </mxCell>
                <mxCell id="5" value="PRIVATE" style="rhombus;whiteSpace=wrap;html=1;fontFamily=Verdana;strokeColor=#F054D6;fontColor=#F02E7B;fontStyle=1;" vertex="1" parent="1">
                    <mxGeometry x="300" width="80" height="80" as="geometry"/>
                </mxCell>
                <mxCell id="14" value="" style="edgeStyle=none;html=1;fontFamily=Verdana;fontColor=#f43481;" edge="1" parent="1" source="7" target="13">
                    <mxGeometry relative="1" as="geometry"/>
                </mxCell>
                <mxCell id="7" value="PUBLIC" style="rhombus;whiteSpace=wrap;html=1;fontFamily=Verdana;strokeColor=#F054D6;fontColor=#F02E7B;fontStyle=1;" vertex="1" parent="1">
                    <mxGeometry x="580" y="160" width="80" height="80" as="geometry"/>
                </mxCell>
                <mxCell id="18" value="" style="edgeStyle=none;html=1;fontFamily=Verdana;fontColor=#f43481;" edge="1" parent="1" source="9" target="17">
                    <mxGeometry relative="1" as="geometry"/>
                </mxCell>
                <mxCell id="9" value="&lt;h6&gt;RESTRICTED&lt;/h6&gt;" style="rhombus;whiteSpace=wrap;html=1;fontFamily=Verdana;strokeColor=#F054D6;fontColor=#F02E7B;fontStyle=1;align=center;" vertex="1" parent="1">
                    <mxGeometry x="20" y="160" width="80" height="80" as="geometry"/>
                </mxCell>
                <mxCell id="11" value="MODERATOR" style="ellipse;whiteSpace=wrap;html=1;fontFamily=Verdana;strokeColor=#F054D6;fontColor=#F02E7B;fontStyle=1;" vertex="1" parent="1">
                    <mxGeometry x="270" y="320" width="140" height="80" as="geometry"/>
                </mxCell>
                <mxCell id="13" value="MUST JOIN&lt;br&gt;SEENABLE POST&lt;br&gt;" style="whiteSpace=wrap;html=1;fontFamily=Verdana;strokeColor=#F054D6;fontColor=#F02E7B;fontStyle=1;" vertex="1" parent="1">
                    <mxGeometry x="560" y="10" width="120" height="60" as="geometry"/>
                </mxCell>
                <mxCell id="15" value="MUST JOIN TO SEE POSTS" style="whiteSpace=wrap;html=1;fontFamily=Verdana;strokeColor=#F054D6;fontColor=#F02E7B;fontStyle=1;" vertex="1" parent="1">
                    <mxGeometry x="120" y="10" width="120" height="60" as="geometry"/>
                </mxCell>
                <mxCell id="17" value="ONLY ALLOW TO SOME MEMBERS" style="whiteSpace=wrap;html=1;fontFamily=Verdana;strokeColor=#F054D6;fontColor=#F02E7B;fontStyle=1;" vertex="1" parent="1">
                    <mxGeometry y="330" width="120" height="60" as="geometry"/>
                </mxCell>
            </root>
        </mxGraphModel>
    </diagram>
</mxfile>